<?xml version="1.0" encoding="UTF-8" standalone="no"?>
<svg
   xmlns:dc="http://purl.org/dc/elements/1.1/"
   xmlns:cc="http://creativecommons.org/ns#"
   xmlns:rdf="http://www.w3.org/1999/02/22-rdf-syntax-ns#"
   xmlns:svg="http://www.w3.org/2000/svg"
   xmlns="http://www.w3.org/2000/svg"
   xmlns:sodipodi="http://sodipodi.sourceforge.net/DTD/sodipodi-0.dtd"
   xmlns:inkscape="http://www.inkscape.org/namespaces/inkscape"
   viewBox="0 0 499.99998 500"
   version="1.1"
   id="svg58"
   sodipodi:docname="kontent.statiq.svg"
   width="500"
   height="500"
   inkscape:version="0.92.4 (5da689c313, 2019-01-14)">
  <metadata
     id="metadata62">
    <rdf:RDF>
      <cc:Work
         rdf:about="">
        <dc:format>image/svg+xml</dc:format>
        <dc:type
           rdf:resource="http://purl.org/dc/dcmitype/StillImage" />
        <dc:title>Asset 3</dc:title>
      </cc:Work>
    </rdf:RDF>
  </metadata>
  <sodipodi:namedview
     pagecolor="#ffffff"
     bordercolor="#666666"
     borderopacity="1"
     objecttolerance="10"
     gridtolerance="10"
     guidetolerance="10"
     inkscape:pageopacity="0"
     inkscape:pageshadow="2"
     inkscape:window-width="1920"
     inkscape:window-height="1017"
     id="namedview60"
     showgrid="false"
     inkscape:zoom="0.5656576"
     inkscape:cx="220.62542"
     inkscape:cy="204.71811"
     inkscape:window-x="1912"
     inkscape:window-y="-8"
     inkscape:window-maximized="1"
     inkscape:current-layer="svg58" />
  <defs
     id="defs34">
    <style
       id="style2">.a{fill:url(#a);}.b{fill:url(#b);}.c{fill:url(#c);}.d{fill:url(#d);}.e{fill:#4d4d4d;}</style>
    <linearGradient
       id="a"
       x1="89.089996"
       x2="89.089996"
       y2="436.17001"
       gradientUnits="userSpaceOnUse"
       gradientTransform="matrix(1.3669805,0,0,1.3404629,821.58781,55.821367)">
      <stop
         offset="0"
         stop-color="#8fd7fd"
         id="stop4" />
      <stop
         offset="1"
         stop-color="#48bdfe"
         id="stop6" />
    </linearGradient>
    <linearGradient
       id="b"
       x1="267.25"
       y1="90.339996"
       x2="267.25"
       y2="605.19"
       gradientUnits="userSpaceOnUse"
       gradientTransform="matrix(1.4759758,0,0,1.3845475,786.31158,-93.349471)">
      <stop
         offset="0"
         stop-color="#d792fd"
         id="stop9" />
      <stop
         offset="1"
         stop-color="#bf4bff"
         id="stop11" />
    </linearGradient>
    <linearGradient
       id="c"
       x1="178.23"
       y1="90.339996"
       x2="178.23"
       y2="436.17001"
       gradientUnits="userSpaceOnUse"
       gradientTransform="translate(888.76622,100.01772)">
      <stop
         offset="0"
         stop-color="#ac83ff"
         id="stop14" />
      <stop
         offset="1"
         stop-color="#7849d8"
         id="stop16" />
    </linearGradient>
    <linearGradient
       id="d"
       x1="254.78"
       y1="473.72"
       x2="286.91"
       y2="413.29999"
       gradientUnits="userSpaceOnUse"
       gradientTransform="translate(955.9447,48.788615)">
      <stop
         offset="0"
         stop-color="#a632e6"
         id="stop19" />
      <stop
         offset="0.07"
         stop-color="#a734e7"
         stop-opacity="0.97"
         id="stop21" />
      <stop
         offset="0.17"
         stop-color="#a938e8"
         stop-opacity="0.88"
         id="stop23" />
      <stop
         offset="0.29"
         stop-color="#ac40eb"
         stop-opacity="0.74"
         id="stop25" />
      <stop
         offset="0.43"
         stop-color="#b04bef"
         stop-opacity="0.55"
         id="stop27" />
      <stop
         offset="0.58"
         stop-color="#b659f4"
         stop-opacity="0.3"
         id="stop29" />
      <stop
         offset="0.73"
         stop-color="#bd69fa"
         stop-opacity="0"
         id="stop31" />
    </linearGradient>
  </defs>
  <title
     id="title36">Asset 3</title>
  <g
     id="g4635"
     transform="matrix(1.023206,0,0,1.023206,0,0.15254211)"
     style="stroke-width:0.97732031">
    <g
       transform="translate(-822.05273,-104.30338)"
       id="g4629"
       style="stroke-width:0.97732031">
      <path
         inkscape:connector-curvature="0"
         style="fill:url(#b);stroke-width:0.97732031"
         d="m 1066.3828,104.1543 a 244.3307,244.3307 0 0 0 -17.1855,0.60742 v 487.19336 a 244.3307,244.3307 0 0 0 17.1855,0.85937 244.3307,244.3307 0 0 0 212.7598,-124.48437 328.80314,308.43565 0 0 0 4.209,-7.98438 244.3307,244.3307 0 0 0 2.5761,-5.33203 328.80314,308.43565 0 0 0 23.5078,-81.76562 244.3307,244.3307 0 0 0 1.2774,-24.76367 244.3307,244.3307 0 0 0 -244.3301,-244.33008 z"
         id="path40" />
      <path
         inkscape:connector-curvature="0"
         style="fill:url(#a);stroke-width:0.97732025"
         d="M 1065.0625,104.20117 A 244.3307,244.3307 0 0 0 822.05273,348.48438 244.3307,244.3307 0 0 0 1065.2227,592.75586 Z"
         id="path38" />
      <path
         style="fill:#ffffff;fill-rule:nonzero;stroke-width:0.97732031"
         inkscape:connector-curvature="0"
         id="path2"
         d="m 997.91016,227.12496 v 120.10431 a 4.6794165,4.5509726 0 0 1 -3.78608,4.49306 c -15.77389,2.89607 -75.05786,10.63273 -75.05786,-38.06268 V 227.7621 c 0,-47.36322 78.84394,-48.42237 78.84394,-0.63714 m 107.90734,82.80289 V 430.057 a 4.6794165,4.5509726 0 0 1 -3.7946,4.46821 c -15.7398,2.9209 -75.0578,10.59135 -75.0578,-38.12887 V 310.4905 c 0,-47.26392 78.8694,-48.32305 78.8694,-0.55438 m 107.8649,72.6749 v 120.12087 a 4.6794165,4.5509726 0 0 1 -3.8202,4.49305 c -15.7399,2.89606 -75.0578,10.59134 -75.0578,-38.12888 v -85.93894 c 0,-47.25563 78.8694,-48.32305 78.8694,-0.5461" />
    </g>
  </g>
</svg>
